<?xml version="1.0"?>
<svg xmlns="http://www.w3.org/2000/svg" xmlns:xlink="http://www.w3.org/1999/xlink" version="1.1" id="Capa_1" x="0px" y="0px" width="28px" height="28px" viewBox="0 0 93.03 93.03" style="enable-background:new 0 0 93.03 93.03;" xml:space="preserve" class=""><g><g>
	<path d="M86.213,0h-58.14c-0.64,0-1.209,0.289-1.601,0.736l0,0c-0.329,0.375-0.537,0.861-0.537,1.402v18.299h-8.49   c-0.639,0-1.207,0.291-1.6,0.736v0.002c-0.33,0.373-0.537,0.861-0.537,1.4v18.301H6.816c-0.639,0-1.208,0.289-1.6,0.736l0,0   c-0.329,0.375-0.537,0.861-0.537,1.402v47.878c0,1.179,0.958,2.138,2.137,2.138h58.141c1.179,0,2.138-0.959,2.138-2.138V72.592   h8.491c1.178,0,2.137-0.957,2.137-2.137v-18.3h8.491c1.179,0,2.137-0.959,2.137-2.138V2.139C88.35,0.959,87.392,0,86.213,0z    M74.89,3.319c1.336,0,2.421,1.082,2.421,2.42s-1.085,2.422-2.421,2.422c-1.338,0-2.422-1.084-2.422-2.422   S73.552,3.319,74.89,3.319z M67.742,3.319c1.336,0,2.42,1.082,2.42,2.42s-1.084,2.422-2.42,2.422c-1.338,0-2.422-1.084-2.422-2.422   S66.404,3.319,67.742,3.319z M62.264,88.006H9.668V53.807h52.595V88.006z M44.063,46.616c0-1.338,1.084-2.42,2.422-2.42   c1.336,0,2.42,1.082,2.42,2.42s-1.084,2.422-2.42,2.422C45.147,49.037,44.063,47.953,44.063,46.616z M51.211,46.616   c0-1.338,1.084-2.42,2.423-2.42c1.336,0,2.421,1.082,2.421,2.42s-1.085,2.422-2.421,2.422   C52.295,49.037,51.211,47.953,51.211,46.616z M60.65,49.037c-1.337,0-2.421-1.084-2.421-2.422s1.084-2.42,2.421-2.42   c1.338,0,2.422,1.082,2.422,2.42S61.988,49.037,60.65,49.037z M72.892,67.569h-5.798V43.016c0-1.18-0.959-2.139-2.139-2.139h-44.66   v-7.51h52.596V67.569z M54.691,26.178c0-1.338,1.086-2.422,2.422-2.422c1.338,0,2.422,1.084,2.422,2.422s-1.084,2.42-2.422,2.42   C55.777,28.598,54.691,27.516,54.691,26.178z M61.84,26.178c0-1.338,1.084-2.422,2.421-2.422s2.422,1.084,2.422,2.422   s-1.085,2.42-2.422,2.42S61.84,27.516,61.84,26.178z M71.279,28.598c-1.338,0-2.423-1.082-2.423-2.42s1.085-2.422,2.423-2.422   c1.336,0,2.422,1.084,2.422,2.422S72.615,28.598,71.279,28.598z M83.52,47.129h-5.798V22.577c0-1.178-0.959-2.139-2.138-2.139   H30.925V12.93H83.52V47.129z M81.906,8.16c-1.336,0-2.42-1.084-2.42-2.422c0-1.338,1.084-2.42,2.42-2.42   c1.338,0,2.422,1.082,2.422,2.42C84.328,7.076,83.244,8.16,81.906,8.16z" data-original="#000000" class="active-path" data-old_color="#ffb822" fill="#ffb822"/>
</g></g> </svg>
